<svg viewBox="0 0 48 48"><path d="M27,3c0-1.66-1.34-3-3-3s-3,1.34-3,3v6c0,1.66,1.34,3,3,3s3-1.34,3-3V3Zm0,36c0-1.66-1.34-3-3-3s-3,1.34-3,3v6c0,1.66,1.34,3,3,3s3-1.34,3-3v-6ZM0,24c0,1.66,1.34,3,3,3h6c1.66,0,3-1.34,3-3s-1.34-3-3-3H3c-1.66,0-3,1.34-3,3Zm39-3c-1.66,0-3,1.34-3,3s1.34,3,3,3h6c1.66,0,3-1.34,3-3s-1.34-3-3-3h-6ZM7.03,7.03c-1.17,1.17-1.17,3.08,0,4.25l4.25,4.25c1.17,1.17,3.08,1.17,4.25,0s1.17-3.08,0-4.25l-4.26-4.25c-1.17-1.17-3.07-1.17-4.24,0Zm29.7,25.45c-1.17-1.17-3.07-1.17-4.25,0s-1.17,3.07,0,4.25l4.25,4.24c1.17,1.17,3.07,1.17,4.25,0s1.17-3.07,0-4.25l-4.25-4.25h0ZM7.03,40.97c1.17,1.17,3.08,1.17,4.25,0l4.25-4.25c1.17-1.17,1.17-3.07,0-4.25s-3.08-1.17-4.25,0l-4.25,4.26c-1.17,1.17-1.17,3.07,0,4.25h0ZM32.48,11.27c-1.17,1.17-1.17,3.08,0,4.25s3.07,1.17,4.25,0l4.24-4.25c1.17-1.17,1.17-3.08,0-4.25s-3.07-1.17-4.25,0l-4.25,4.25h0Z"/></svg>