<?xml version="1.0" encoding="utf-8"?><svg xmlns="http://www.w3.org/2000/svg"><symbol id="angle-down" viewBox="0 0 48 48"><path d="M24,38a4,4,0,0,1-2.83-1.17l-20-20a4,4,0,0,1,5.66-5.66L24,28.35,41.17,11.18a4,4,0,0,1,5.66,5.65l-20,20A4,4,0,0,1,24,38Z"/></symbol><symbol id="angle-right" viewBox="0 0 48 48"><path d="M14,48a4,4,0,0,1-2.83-6.83L28.35,24,11.17,6.83a4,4,0,0,1,5.66-5.65l20,20a4,4,0,0,1,0,5.65l-20,20A4,4,0,0,1,14,48Z"/></symbol><symbol id="ban" viewBox="0 0 48 48"><path d="M34.43,38.67L9.33,13.58c-2.1,2.93-3.33,6.53-3.33,10.42,0,9.94,8.06,18,18,18,3.89,0,7.49-1.23,10.43-3.33Zm4.25-4.25c2.1-2.93,3.33-6.53,3.33-10.43,0-9.94-8.06-18-18-18-3.89,0-7.49,1.23-10.42,3.33l25.1,25.1Zm9.33-10.43c0,13.26-10.74,24-24,24S0,37.26,0,24,10.74,0,24,0s24,10.74,24,24Z"/></symbol><symbol id="circle-check" viewBox="0 0 48 48"><path d="M24,48c13.26,0,24-10.74,24-24S37.26,0,24,0,0,10.74,0,24s10.74,24,24,24Zm10.59-28.41l-12,12c-.88,.88-2.31,.88-3.18,0l-6-6c-.88-.88-.88-2.31,0-3.18s2.31-.88,3.18,0l4.41,4.41,10.41-10.42c.88-.88,2.31-.88,3.18,0s.88,2.31,0,3.18h0Z"/></symbol><symbol id="circle-xmark" viewBox="0 0 48 48"><path d="M24,48c13.26,0,24-10.74,24-24S37.26,0,24,0,0,10.74,0,24s10.74,24,24,24Zm-7.59-31.59c.88-.88,2.31-.88,3.18,0l4.41,4.41,4.41-4.41c.88-.88,2.31-.88,3.18,0s.88,2.31,0,3.18l-4.41,4.41,4.41,4.41c.88,.88,.88,2.31,0,3.18s-2.31,.88-3.18,0l-4.41-4.41-4.41,4.41c-.88,.88-2.31,.88-3.18,0s-.88-2.31,0-3.18l4.41-4.41-4.41-4.41c-.88-.88-.88-2.31,0-3.18Z"/></symbol><symbol id="hourglass-start" viewBox="0 0 48 48"><path d="M9,0c-1.66,0-3,1.34-3,3s1.34,3,3,3v1.03c0,3.98,1.58,7.79,4.4,10.6l6.36,6.37-6.36,6.37c-2.81,2.81-4.4,6.63-4.4,10.6v1.03c-1.66,0-3,1.34-3,3s1.34,3,3,3h30c1.66,0,3-1.34,3-3s-1.34-3-3-3v-1.03c0-3.97-1.58-7.79-4.4-10.6l-6.36-6.37,6.37-6.37c2.81-2.81,4.4-6.63,4.4-10.6v-1.03c1.66,0,3-1.34,3-3s-1.34-3-3-3H9Zm24,40.97v1.03H15v-1.03c0-2.39,.95-4.68,2.63-6.37l6.37-6.36,6.37,6.37c1.69,1.69,2.63,3.97,2.63,6.37h0Z"/></symbol><symbol id="loader" viewBox="0 0 48 48"><path d="M27,3c0-1.66-1.34-3-3-3s-3,1.34-3,3v6c0,1.66,1.34,3,3,3s3-1.34,3-3V3Zm0,36c0-1.66-1.34-3-3-3s-3,1.34-3,3v6c0,1.66,1.34,3,3,3s3-1.34,3-3v-6ZM0,24c0,1.66,1.34,3,3,3h6c1.66,0,3-1.34,3-3s-1.34-3-3-3H3c-1.66,0-3,1.34-3,3Zm39-3c-1.66,0-3,1.34-3,3s1.34,3,3,3h6c1.66,0,3-1.34,3-3s-1.34-3-3-3h-6ZM7.03,7.03c-1.17,1.17-1.17,3.08,0,4.25l4.25,4.25c1.17,1.17,3.08,1.17,4.25,0s1.17-3.08,0-4.25l-4.26-4.25c-1.17-1.17-3.07-1.17-4.24,0Zm29.7,25.45c-1.17-1.17-3.07-1.17-4.25,0s-1.17,3.07,0,4.25l4.25,4.24c1.17,1.17,3.07,1.17,4.25,0s1.17-3.07,0-4.25l-4.25-4.25h0ZM7.03,40.97c1.17,1.17,3.08,1.17,4.25,0l4.25-4.25c1.17-1.17,1.17-3.07,0-4.25s-3.08-1.17-4.25,0l-4.25,4.26c-1.17,1.17-1.17,3.07,0,4.25h0ZM32.48,11.27c-1.17,1.17-1.17,3.08,0,4.25s3.07,1.17,4.25,0l4.24-4.25c1.17-1.17,1.17-3.08,0-4.25s-3.07-1.17-4.25,0l-4.25,4.25h0Z"/></symbol><symbol id="triangle-exclamation" viewBox="0 0 48 48"><path d="M47.46,39.09,27.47,5a4,4,0,0,0-6.94,0L.54,39.09A3.94,3.94,0,0,0,4,45H44A3.94,3.94,0,0,0,47.46,39.09ZM21.75,15.75a2.25,2.25,0,0,1,4.5,0v12A2.24,2.24,0,0,1,24.08,30a2.37,2.37,0,0,1-2.33-2.25ZM24,39a2.95,2.95,0,1,1,2.95-3A2.95,2.95,0,0,1,24,39Z"/></symbol></svg>